<?xml version="1.0" standalone="no"?>
<!DOCTYPE svg PUBLIC "-//W3C//DTD SVG 20010904//EN"
 "http://www.w3.org/TR/2001/REC-SVG-20010904/DTD/svg10.dtd">
<svg version="1.0" xmlns="http://www.w3.org/2000/svg"
 width="980.000000pt" height="980.000000pt" viewBox="0 0 980.000000 980.000000"
 preserveAspectRatio="xMidYMid meet">
<metadata>
Created by potrace 1.14, written by Peter Selinger 2001-2017
</metadata>
<g transform="translate(0.000000,980.000000) scale(0.100000,-0.100000)"
fill="#000000" stroke="none">
<path d="M4658 9795 c-2 -2 -39 -6 -83 -9 -79 -5 -128 -10 -235 -22 -78 -9
-82 -10 -115 -17 -16 -4 -48 -9 -70 -12 -23 -3 -52 -8 -65 -11 -14 -3 -38 -8
-55 -10 -26 -5 -53 -11 -130 -29 -11 -3 -31 -7 -45 -10 -46 -8 -294 -83 -392
-118 -53 -19 -99 -32 -102 -29 -3 3 -6 0 -6 -6 0 -7 -3 -11 -7 -10 -9 1 -11 1
-143 -55 -52 -21 -108 -46 -125 -55 -16 -9 -32 -17 -35 -17 -11 -2 -208 -107
-272 -144 -14 -9 -52 -31 -85 -50 -32 -18 -60 -36 -63 -40 -3 -3 -32 -23 -65
-45 -109 -70 -320 -235 -409 -320 -26 -25 -52 -46 -56 -46 -5 0 -10 -4 -12 -9
-1 -5 -43 -52 -93 -103 -117 -122 -177 -192 -275 -322 -33 -43 -60 -82 -60
-85 0 -4 -8 -16 -18 -27 -9 -10 -23 -31 -31 -46 -8 -15 -24 -38 -35 -50 -12
-12 -20 -25 -20 -28 1 -3 -15 -34 -36 -70 -54 -94 -110 -202 -110 -212 0 -6
-10 -24 -22 -41 -13 -18 -22 -34 -22 -37 2 -6 -6 -26 -35 -92 -11 -27 -18 -48
-14 -48 3 0 1 -6 -4 -12 -10 -13 -60 -153 -70 -193 -6 -26 -7 -30 -26 -95 -9
-30 -19 -66 -21 -80 -3 -14 -5 -25 -6 -25 -1 0 -3 -9 -5 -20 -4 -20 -17 -85
-20 -95 0 -3 -5 -27 -10 -55 -4 -27 -10 -57 -11 -65 -2 -8 -6 -40 -10 -70 -3
-30 -8 -64 -10 -75 -15 -73 -21 -420 -11 -575 8 -106 31 -271 48 -333 6 -22
12 -50 14 -61 1 -12 6 -29 9 -38 4 -9 9 -25 11 -35 2 -10 4 -18 6 -18 1 0 3
-9 5 -20 3 -18 36 -118 64 -190 6 -16 11 -31 11 -32 -1 -6 113 -229 119 -233
4 -3 17 -26 30 -52 13 -27 28 -48 32 -48 5 0 6 -4 3 -10 -3 -5 -3 -10 2 -10 4
0 26 -27 47 -60 22 -33 43 -60 48 -60 4 0 8 -6 8 -12 0 -7 15 -29 33 -49 85
-96 114 -134 110 -146 -3 -7 -9 -13 -15 -13 -8 0 -59 -37 -104 -75 -7 -5 -27
-21 -45 -35 -85 -65 -294 -269 -374 -365 -82 -98 -91 -105 -122 -96 -87 24
-267 -9 -364 -68 -19 -11 -40 -24 -48 -28 -8 -3 -22 -14 -31 -22 -9 -9 -34
-32 -56 -52 -58 -55 -164 -194 -164 -217 0 -5 -7 -15 -15 -22 -8 -7 -15 -21
-15 -31 0 -11 -4 -19 -9 -19 -5 0 -12 -10 -16 -22 -4 -13 -8 -25 -9 -28 -1 -3
-16 -41 -33 -85 -27 -69 -77 -237 -87 -293 -2 -9 -7 -37 -12 -62 -9 -51 -11
-59 -14 -62 -16 -20 -36 -558 -21 -558 3 0 7 -19 8 -43 0 -23 4 -53 7 -67 5
-22 12 -59 21 -110 25 -139 113 -351 199 -475 43 -64 147 -171 181 -186 81
-39 100 -56 118 -105 10 -27 24 -62 31 -79 7 -16 19 -45 26 -62 7 -18 16 -33
21 -33 5 0 8 -3 7 -7 -3 -12 35 -86 55 -107 9 -11 17 -25 17 -30 0 -15 113
-170 175 -242 89 -102 228 -234 299 -283 12 -8 23 -18 26 -21 3 -4 28 -22 55
-40 28 -19 51 -37 53 -42 2 -4 9 -8 16 -8 7 0 21 -8 32 -17 20 -17 57 -40 119
-71 17 -9 32 -18 35 -22 10 -14 257 -129 380 -178 115 -46 294 -108 330 -114
8 -2 17 -6 20 -10 3 -3 19 -8 35 -12 17 -3 57 -12 90 -22 33 -9 68 -18 78 -19
9 -2 21 -6 25 -9 5 -3 24 -8 43 -11 19 -3 70 -14 114 -25 80 -19 143 -31 180
-36 11 -1 20 -3 20 -4 0 -2 19 -5 108 -20 40 -7 81 -14 92 -16 10 -2 37 -6 60
-9 22 -4 54 -9 70 -12 17 -3 49 -6 72 -7 24 0 43 -3 43 -6 0 -3 12 -6 28 -6
15 -1 52 -4 82 -8 30 -4 73 -9 95 -11 38 -5 117 -12 215 -20 25 -2 45 -4 45
-5 0 0 36 -3 80 -5 44 -3 118 -7 165 -10 569 -35 1497 -20 1955 30 28 3 72 8
98 11 27 3 67 7 90 9 50 4 132 14 167 20 14 3 48 7 75 10 50 6 90 12 90 15 0
3 30 7 94 14 36 4 67 9 71 11 8 5 54 14 110 21 24 3 48 8 52 10 4 3 18 7 30 9
13 3 48 10 78 17 30 7 60 13 65 14 6 1 12 3 15 4 5 2 12 3 60 13 131 29 457
133 593 190 20 9 39 17 42 17 69 14 532 262 543 291 2 5 8 9 14 9 5 0 30 16
54 36 24 20 44 34 44 30 0 -3 8 2 18 12 10 9 45 40 78 68 102 88 254 246 254
263 0 6 6 14 13 18 7 4 24 24 37 43 13 19 27 37 30 40 9 7 113 180 129 215 8
16 13 33 13 38 -1 4 2 7 6 7 9 0 38 70 34 82 -1 4 2 8 8 8 5 0 10 9 10 20 0
11 5 20 10 20 6 0 9 3 9 8 -1 4 0 10 1 15 1 4 3 10 4 15 7 27 18 51 24 50 9
-3 87 38 114 60 46 37 122 120 157 172 58 87 86 138 83 153 -1 4 3 7 9 7 5 0
8 4 4 9 -3 5 -1 12 5 16 6 4 8 11 5 16 -4 5 -2 9 3 9 8 0 38 81 63 170 7 25
14 50 15 55 5 19 16 70 19 95 2 14 4 25 5 25 1 0 4 11 6 25 1 14 7 54 12 90 9
64 8 378 -2 455 -13 102 -29 187 -57 300 -11 44 -21 85 -22 90 -2 6 -5 15 -8
20 -3 6 -12 33 -19 60 -7 28 -16 55 -20 60 -3 6 -12 29 -20 53 -7 23 -17 42
-22 42 -4 0 -7 3 -6 8 6 15 -74 162 -109 201 -13 14 -23 29 -23 34 0 17 -137
146 -190 179 -45 28 -137 70 -160 73 -3 1 -21 5 -40 9 -45 11 -165 14 -204 6
-27 -5 -35 -1 -59 29 -137 171 -313 344 -482 473 -38 29 -71 56 -73 61 -2 4
-10 7 -17 7 -8 0 -18 8 -23 17 -7 12 -2 25 25 52 19 19 44 48 56 64 12 15 32
40 45 55 89 106 301 475 302 525 0 9 5 17 11 17 6 0 9 6 6 14 -3 8 1 20 9 27
8 6 12 14 10 17 -4 3 8 43 41 132 3 8 7 25 9 37 1 13 6 33 10 45 5 13 9 25 9
28 24 106 39 195 50 285 31 253 20 609 -26 860 -7 33 -13 69 -14 80 -4 27 -55
236 -62 255 -3 8 -7 20 -7 25 -5 36 -80 249 -121 340 -8 17 -15 35 -16 40 -5
20 -141 280 -154 295 -8 8 -13 17 -13 20 2 9 -165 266 -181 280 -3 3 -25 30
-48 62 -23 31 -53 67 -65 81 -13 14 -39 45 -58 68 -38 47 -289 299 -297 299
-3 0 -29 22 -58 49 -30 26 -82 69 -117 95 -35 26 -70 53 -79 61 -9 7 -50 36
-90 64 -41 28 -79 54 -85 58 -39 29 -312 185 -320 183 -4 -1 -10 2 -13 7 -11
16 -377 183 -401 183 -6 0 -18 4 -28 9 -86 46 -580 189 -603 175 -5 -3 -9 0
-9 6 0 7 -6 10 -12 7 -7 -2 -24 0 -38 5 -14 5 -38 11 -55 14 -16 2 -41 5 -55
8 -14 2 -47 7 -75 11 -27 3 -61 8 -75 11 -14 2 -45 7 -70 9 -25 3 -65 8 -90
11 -25 3 -65 7 -90 10 -53 6 -587 14 -592 9z"/>
</g>
</svg>
